HIERARCHY
ROOT Hips
{
	OFFSET 0.00000 0.00000 0.00000
	CHANNELS 6 Xposition Yposition Zposition Zrotation Yrotation Xrotation 
	JOINT LHipJoint
	{
		OFFSET 0 0 0
		CHANNELS 3 Zrotation Yrotation Xrotation
		JOINT LeftUpLeg
		{
			OFFSET 1.30186 -1.90722 0.65024
			CHANNELS 3 Zrotation Yrotation Xrotation
			JOINT LeftLeg
			{
				OFFSET 2.56413 -7.04489 0.00000
				CHANNELS 3 Zrotation Yrotation Xrotation
				JOINT LeftFoot
				{
					OFFSET 2.79321 -7.67428 0.00000
					CHANNELS 3 Zrotation Yrotation Xrotation
					JOINT LeftToeBase
					{
						OFFSET 0.15723 -0.43198 2.08537
						CHANNELS 3 Zrotation Yrotation Xrotation
						End Site
						{
							OFFSET 0.00000 -0.00000 1.07411
						}
					}
				}
			}
		}
	}
	JOINT RHipJoint
	{
		OFFSET 0 0 0
		CHANNELS 3 Zrotation Yrotation Xrotation
		JOINT RightUpLeg
		{
			OFFSET -1.28627 -1.90723 0.65024
			CHANNELS 3 Zrotation Yrotation Xrotation
			JOINT RightLeg
			{
				OFFSET -2.56567 -7.04913 0.00000
				CHANNELS 3 Zrotation Yrotation Xrotation
				JOINT RightFoot
				{
					OFFSET -2.75597 -7.57198 0.00000
					CHANNELS 3 Zrotation Yrotation Xrotation
					JOINT RightToeBase
					{
						OFFSET -0.17500 -0.48081 2.22901
						CHANNELS 3 Zrotation Yrotation Xrotation
						End Site
						{
							OFFSET -0.00000 -0.00000 1.14762
						}
					}
				}
			}
		}
	}
	JOINT LowerBack
	{
		OFFSET 0 0 0
		CHANNELS 3 Zrotation Yrotation Xrotation
		JOINT Spine
		{
			OFFSET -0.04522 2.07467 -0.16566
			CHANNELS 3 Zrotation Yrotation Xrotation
			JOINT Spine1
			{
				OFFSET -0.01178 2.08825 -0.05393
				CHANNELS 3 Zrotation Yrotation Xrotation
				JOINT Neck
				{
					OFFSET 0 0 0
					CHANNELS 3 Zrotation Yrotation Xrotation
					JOINT Neck1
					{
						OFFSET -0.05182 1.80489 0.16014
						CHANNELS 3 Zrotation Yrotation Xrotation
						JOINT Head
						{
							OFFSET 0.14739 1.78840 -0.33342
							CHANNELS 3 Zrotation Yrotation Xrotation
							End Site
							{
								OFFSET 0.04364 1.83899 -0.13460
							}
						}
					}
				}
				JOINT LeftShoulder
				{
					OFFSET 0 0 0
					CHANNELS 3 Zrotation Yrotation Xrotation
					JOINT LeftArm
					{
						OFFSET 3.01264 1.29090 -0.06579
						CHANNELS 3 Zrotation Yrotation Xrotation
						JOINT LeftForeArm
						{
							OFFSET 5.55680 -0.00000 0.00000
							CHANNELS 3 Zrotation Yrotation Xrotation
							JOINT LeftHand
							{
								OFFSET 3.63979 -0.00000 -0.00000
								CHANNELS 3 Zrotation Yrotation Xrotation
								JOINT LeftFingerBase
								{
									OFFSET 0 0 0
									CHANNELS 3 Zrotation Yrotation Xrotation
									JOINT LeftHandIndex1
									{
										OFFSET 0.56942 -0.00000 -0.00000
										CHANNELS 3 Zrotation Yrotation Xrotation
										End Site
										{
											OFFSET 0.45908 -0.00000 -0.00000
										}
									}
								}
								JOINT LThumb
								{
									OFFSET 0 0 0
									CHANNELS 3 Zrotation Yrotation Xrotation
									End Site
									{
										OFFSET 0.46609 -0.00000 0.46609
									}
								}
							}
						}
					}
				}
				JOINT RightShoulder
				{
					OFFSET 0 0 0
					CHANNELS 3 Zrotation Yrotation Xrotation
					JOINT RightArm
					{
						OFFSET -3.15796 1.37283 -0.36748
						CHANNELS 3 Zrotation Yrotation Xrotation
						JOINT RightForeArm
						{
							OFFSET -5.34339 -0.00000 0.00000
							CHANNELS 3 Zrotation Yrotation Xrotation
							JOINT RightHand
							{
								OFFSET -3.65101 -0.00000 -0.00000
								CHANNELS 3 Zrotation Yrotation Xrotation
								JOINT RightFingerBase
								{
									OFFSET 0 0 0
									CHANNELS 3 Zrotation Yrotation Xrotation
									JOINT RightHandIndex1
									{
										OFFSET -0.69425 -0.00000 -0.00000
										CHANNELS 3 Zrotation Yrotation Xrotation
										End Site
										{
											OFFSET -0.55972 -0.00000 -0.00000
										}
									}
								}
								JOINT RThumb
								{
									OFFSET 0 0 0
									CHANNELS 3 Zrotation Yrotation Xrotation
									End Site
									{
										OFFSET -0.56827 -0.00000 0.56827
									}
								}
							}
						}
					}
				}
			}
		}
	}
}
MOTION
Frames: 14
Frame Time: 0.0645161
0.00 0.00 0.00 0 0 0 0 0 0 -21 0 0 0 0 0 0 0 0 0 0 0 0 0 0 21 0 0 0 0 0 0 0 0 0 0 0 0 0 0 0 0 0 0 0 0 0 0 -16 0 0 21 0 0 11 0 0 0 -8 0 0 0 0 0 0 0 0 0 0 0 0 0 0 0 0 0 0 0 0 8 0 0 0 0 0 0 0 0 0 0 0 0 0 0 0 0 0
0.00 0.00 0.00 -179.4140 1.6980 -173.5250 0.0000 0.0000 0.0000 -16.3457 -4.9317 -5.8916 1.3190 7.2740 20.5298 1.0478 0.4781 -19.5277 0.3685 -3.8991 -10.7930 0.0000 0.0000 0.0000 17.5840 13.1316 -4.8803 -1.3193 -7.2747 20.5317 -0.3062 -6.8114 -15.1183 -0.0195 -0.9021 2.4794 -0.9171 0.9892 -0.3511 0.1664 1.3224 -0.2346 0.6874 0.6628 -0.0680 -4.5446 -3.1563 -11.9604 3.1461 -4.2706 15.5619 1.3429 -2.1599 6.8870 0.0000 -0.0000 0.0000 -38.9547 -30.0852 6.9247 128.1961 -53.6976 -92.3786 -0.0000 -0.0000 8.6181 37.4731 14.7572 11.0489 -7.1250 0.0000 -0.0000 9.6894 48.1005 0.7477 0.0000 -0.0000 0.0000 32.2363 20.4790 -0.3960 -126.1884 54.4217 -90.7530 0.0000 0.0000 4.3264 -43.0355 41.3357 -31.6606 7.1250 -0.0000 -0.0000 -3.0995 20.2337 -3.9847
0.00 0.00 0.00 -178.9410 1.2883 -175.3730 0.0000 0.0000 0.0000 -14.8529 -4.6000 -13.0849 3.7820 11.8645 35.2543 1.6198 -5.5417 -22.9080 0.2613 -3.2887 -9.0836 0.0000 0.0000 0.0000 17.6170 12.1340 -12.0702 -3.6708 -11.7090 34.7101 -1.1154 -1.6729 -20.6213 -0.2392 -3.1476 8.6898 -0.5531 0.9557 2.7888 0.4166 1.2948 1.2050 0.6968 0.6589 -0.3502 -3.7344 -3.1876 -13.6814 2.3454 -4.1321 14.8267 0.9492 -2.0552 6.9091 0.0000 -0.0000 0.0000 -36.1587 -33.1133 1.5595 130.0283 -52.9841 -93.8485 -0.0000 -0.0000 11.2556 30.5045 19.1648 10.9464 -7.1250 0.0000 -0.0000 2.3106 51.9336 0.3946 0.0000 -0.0000 0.0000 30.5213 22.5990 -4.6399 -127.4899 53.9590 -91.8085 0.0000 0.0000 9.5352 -35.0939 39.6919 -24.1684 7.1250 -0.0000 -0.0000 0.2185 15.4290 0.2687
0.00 0.00 0.00 -179.5630 1.1485 -178.0650 0.0000 0.0000 0.0000 -14.1299 -3.8191 -19.0946 7.3637 15.6307 50.2369 2.1817 -11.7894 -26.6332 0.3030 -3.5390 -9.7830 0.0000 0.0000 0.0000 16.8582 13.2372 -17.7972 -7.4772 -15.7209 50.6568 -2.0185 -0.4549 -27.0605 -0.0404 -1.2980 3.5692 -1.5276 0.7956 6.5595 0.2628 1.0859 2.0955 1.0417 0.5923 -1.5492 -4.0553 -3.0264 -11.3560 2.7743 -3.8843 11.9731 1.2103 -1.9134 5.6117 0.0000 -0.0000 0.0000 -33.8107 -32.3505 -0.1156 127.4148 -53.9864 -91.7477 -0.0000 -0.0000 14.5289 38.5628 14.4753 11.2701 -7.1250 0.0000 -0.0000 10.7728 47.9538 0.7937 0.0000 -0.0000 0.0000 30.4241 24.8577 -5.4461 -128.1533 53.7137 -92.3441 0.0000 0.0000 8.7072 -38.7232 40.6664 -27.5874 7.1250 -0.0000 -0.0000 -1.2632 17.7672 -1.5887
0.00 0.00 0.00 -180.5960 1.9628 -175.1570 0.0000 0.0000 0.0000 -15.9913 -3.0847 -18.6597 5.0632 13.4546 41.0950 1.4627 -9.8123 -21.7266 0.0075 -0.5582 -1.5338 0.0000 0.0000 0.0000 14.8897 13.1933 -17.5797 -5.1868 -13.5912 41.6237 -1.2008 -1.5645 -21.3228 -0.0023 -0.3114 0.8556 -2.9302 1.0929 7.8517 -0.3920 1.3964 2.4721 1.1079 0.7725 -1.9001 -3.8451 -3.1598 -12.4741 3.1641 -3.9879 9.9668 1.2866 -1.8887 5.1793 0.0000 -0.0000 0.0000 -22.6602 -13.4719 7.3900 132.6397 -51.8737 -95.9185 -0.0000 -0.0000 3.7523 31.0328 6.9816 4.1826 -7.1250 0.0000 -0.0000 3.6545 38.0898 -0.6228 0.0000 -0.0000 0.0000 13.8254 7.2820 12.5535 -124.1378 55.1025 -89.0780 0.0000 -0.0000 -2.6035 -26.0686 42.3993 -18.2564 7.1250 -0.0000 -0.0000 5.3940 15.3152 6.6521
0.00 0.00 0.00 -180.5850 0.3739 -175.0510 0.0000 0.0000 0.0000 -16.0126 -3.3740 -18.5875 4.9256 13.2995 40.5004 1.3881 -9.5882 -21.1583 0.2883 -3.4530 -9.5425 0.0000 0.0000 0.0000 14.9175 11.8730 -17.3572 -5.0211 -13.4075 40.9137 -1.2895 -0.8948 -21.8052 -0.1371 -2.3866 6.5752 -2.8175 1.0480 9.0028 -0.1348 1.3119 2.2866 1.2937 0.7429 -2.7296 -4.5537 -3.5145 -11.1310 3.8723 -4.4678 9.1613 1.6050 -2.1203 4.7566 -0.0000 -0.0000 0.0000 -38.0818 -9.6121 7.1600 144.0423 -45.4840 -104.5077 -0.0000 0.0000 -1.7041 14.7756 8.6957 2.2835 -7.1250 0.0000 -0.0000 -10.4605 38.7663 1.6273 -0.0000 -0.0000 0.0000 22.2363 -4.7241 19.8784 -139.0311 48.6336 -100.8368 0.0000 -0.0000 -13.6596 -17.0961 43.1891 -11.8872 7.1250 -0.0000 -0.0000 9.9312 13.9237 12.1884
0.00 0.00 0.00 -179.9310 -0.4650 -174.6900 0.0000 0.0000 0.0000 -15.0971 -4.1145 -19.3725 5.1612 13.5631 41.5145 1.4552 -10.2555 -21.7123 0.1208 -2.2402 -6.1701 0.0000 0.0000 0.0000 15.5904 12.1517 -17.7726 -5.1598 -13.5615 41.5085 -1.4440 -1.3440 -23.2309 -0.1599 -2.5765 7.1020 -2.0646 0.6437 8.6213 -0.4148 0.4455 2.9157 0.6907 0.1221 -1.8294 -3.9149 -3.6029 -9.7210 4.1863 -4.7068 7.3375 1.6149 -2.2213 3.9675 -0.0000 -0.0000 0.0000 -76.5961 -2.6067 10.4139 158.0334 -32.9393 -113.4323 -0.0000 0.0000 -24.8255 4.6592 12.1914 0.9860 -7.1250 0.0000 -0.0000 -19.9320 41.3380 1.8845 -0.0000 -0.0000 0.0000 62.4585 -7.8788 21.8327 -152.2438 38.8909 -110.0297 0.0000 -0.0000 -13.7195 -14.6862 43.5685 -10.2393 7.1250 -0.0000 -0.0000 11.1638 13.8087 13.7332
0.00 0.00 0.00 -180.7030 0.7095 -176.6090 0.0000 0.0000 0.0000 -15.3362 -2.3517 -21.3815 6.5684 14.9574 47.2224 1.5074 -12.9698 -22.4614 0.0561 -1.5278 -4.2023 0.0000 0.0000 0.0000 14.7160 13.0267 -19.6895 -6.7245 -15.0955 47.8246 -1.7994 0.2524 -25.3157 -0.2969 -3.5040 9.6851 -3.9413 0.5247 10.8741 -0.4929 0.7542 4.4325 1.6113 0.5415 -1.5016 -4.0326 -3.6733 -8.8021 4.0197 -4.7312 5.0712 1.7718 -2.2706 3.4399 0.0000 -0.0000 0.0000 -56.2010 0.8256 41.5014 157.3957 -33.6533 -113.0823 -0.0000 0.0000 -11.3834 -0.2283 8.8503 -0.0351 -7.1250 0.0000 -0.0000 -22.9340 37.8179 4.3330 0.0000 -0.0000 0.0000 47.9643 -7.4886 43.5179 -156.0222 35.1408 -112.3062 0.0000 -0.0000 -11.1333 -6.8900 44.7115 -4.8592 7.1250 -0.0000 -0.0000 15.0419 13.6127 18.7284
0.00 0.00 0.00 -181.4360 1.0181 -175.4310 0.0000 0.0000 0.0000 -16.9450 -2.9691 -17.4646 4.1201 12.3185 36.8683 1.1683 -8.4233 -19.3580 0.0205 -0.9255 -2.5438 0.0000 0.0000 0.0000 14.1918 12.3585 -16.5621 -4.3437 -12.6043 37.9047 -1.0998 -1.2545 -20.3059 -0.1970 -2.8581 7.8840 -2.0666 0.6608 8.7392 -0.0516 1.0333 3.8319 1.0084 0.6324 -0.9616 -2.7518 -2.6320 -9.0691 1.2175 -3.2763 5.5778 0.6949 -1.6344 3.4934 -0.0000 0.0000 0.0000 -34.6851 4.9310 12.5060 159.5438 -31.1881 -114.2343 -0.0000 0.0000 -43.1382 1.7266 16.2397 0.4830 -7.1250 0.0000 -0.0000 -23.9071 44.7862 0.1341 -0.0000 0.0000 0.0000 18.8756 -6.2892 22.3977 -157.6245 33.3988 -113.2086 0.0000 -0.0000 -44.5991 7.9214 34.8747 4.5489 7.1250 -0.0000 -0.0000 21.9036 3.0147 24.8787
0.00 0.00 0.00 -184.2100 8.6015 -175.4820 0.0000 0.0000 0.0000 -19.9894 1.4069 -30.4024 8.4753 16.4580 54.2572 1.8980 -11.0454 -24.8027 0.3303 -3.6938 -10.2168 0.0000 0.0000 0.0000 7.4682 17.2453 -30.1857 -9.1181 -16.8831 56.4976 -1.5143 3.1158 -22.4643 -0.0006 -0.1589 0.4365 -2.5297 2.4422 14.4534 -2.9471 3.4006 4.4812 -2.2553 1.9669 -3.3036 -2.7293 -2.5044 -9.2243 2.4972 -3.2044 1.9005 1.1181 -1.5709 2.2945 -0.0000 0.0000 0.0000 -64.5014 6.9636 18.5264 161.9533 -28.2170 -115.4287 -0.0000 0.0000 -25.9012 5.9002 12.7162 1.3031 -7.1250 0.0000 -0.0000 -19.0411 41.9517 1.4918 -0.0000 0.0000 0.0000 43.8359 6.6295 15.5154 -158.1822 32.7705 -113.5131 0.0000 -0.0000 -30.9906 3.1128 39.3973 1.9768 7.1250 -0.0000 -0.0000 19.4904 7.5104 23.1677
0.00 0.00 0.00 -183.1030 3.2405 -174.0100 0.0000 0.0000 0.0000 -15.8085 -5.5608 -40.6897 13.4813 18.9491 70.6140 2.3198 -15.5290 -27.9017 0.1262 -2.2899 -6.3076 0.0000 0.0000 0.0000 6.6902 15.7672 -41.0816 -13.7867 -19.0481 71.5521 -2.4253 3.0469 -28.7090 -0.0013 -0.2295 0.6304 -3.2306 0.8709 18.2807 -1.0688 1.0933 3.9707 0.4152 0.8400 -5.9837 -2.1414 -2.3452 -9.7400 0.4735 -2.7534 0.4771 0.3931 -1.3086 1.8502 -0.0000 0.0000 0.0000 -50.4302 -3.4257 13.5273 160.9766 -29.4478 -114.9576 -0.0000 0.0000 -28.9067 5.4242 10.2663 0.9695 -7.1250 0.0000 -0.0000 -18.7148 39.5841 2.6045 -0.0000 0.0000 0.0000 37.2445 11.2293 12.9452 -158.0135 32.9617 -113.4215 0.0000 -0.0000 -33.1131 3.0117 38.0565 1.8576 7.1250 -0.0000 -0.0000 19.4149 6.2470 22.6896
0.00 0.00 0.00 -177.5290 -9.8657 -172.5130 0.0000 0.0000 0.0000 -5.2472 -16.4680 -54.2284 18.9916 19.9756 87.0504 2.7623 -16.0792 -30.3910 0.6389 -5.1138 -14.2333 0.0000 0.0000 0.0000 11.1389 9.1215 -53.0960 -18.7883 -19.9648 86.4551 -3.2959 1.4814 -34.0483 -0.0002 -0.0977 0.2685 -1.1004 -1.5411 23.6492 5.0262 -2.8736 4.3714 7.1241 -1.7313 -8.0245 -1.5067 -2.2194 -12.8448 -0.9987 -2.2322 -2.7399 -0.1635 -0.9171 1.3049 0.0000 0.0000 0.0000 -48.6198 -8.5945 26.5184 159.7557 -30.9356 -114.3436 -0.0000 0.0000 -27.8527 5.8848 11.7239 1.1998 -7.1250 0.0000 -0.0000 -18.7497 41.0085 1.9221 0.0000 0.0000 0.0000 34.6832 11.1552 16.6636 -157.3733 33.6780 -113.0698 0.0000 -0.0000 -25.8657 8.3576 37.5266 5.1137 7.1250 -0.0000 -0.0000 22.0570 5.4945 25.9887
0.00 0.00 0.00 -189.6360 7.4124 -173.3130 0.0000 0.0000 0.0000 -17.9249 -9.4692 -63.1252 23.2554 19.7440 99.5574 3.6291 -12.8099 -34.5198 1.3489 -7.3527 -20.7646 0.0000 0.0000 0.0000 -9.1461 21.2354 -67.6935 -24.1383 -19.5844 102.1805 -3.3692 2.9486 -34.0863 -0.1823 -2.7502 7.5841 -8.8811 2.0166 30.9974 -5.1102 1.0368 5.3132 -1.2051 1.4946 -10.0979 -3.4427 -2.5119 -13.2442 4.2323 -3.7257 -6.5583 1.7618 -2.1403 0.3014 0.0000 0.0000 0.0000 -52.6811 -9.3676 20.9030 159.0273 -31.7964 -113.9645 -0.0000 0.0000 -28.0463 4.9534 10.9313 0.9416 -7.1250 0.0000 -0.0000 -19.3000 40.1751 2.3987 0.0000 0.0000 0.0000 43.7312 19.3334 23.9146 -156.1923 34.9602 -112.4039 0.0000 -0.0000 -25.2588 0.9196 37.9805 0.5660 7.1250 -0.0000 -0.0000 18.3636 6.3280 21.3464
0.00 0.00 0.00 -178.2010 -8.8401 -170.6420 0.0000 0.0000 0.0000 3.8398 -18.5367 -82.3169 28.1117 18.3430 114.3658 3.0262 -15.8694 -31.7290 1.6639 -8.1279 -23.1033 0.0000 0.0000 0.0000 1.9449 15.8242 -80.3325 -28.3215 -18.2514 115.0340 -3.1043 -6.0527 -35.7926 -0.1449 -2.4534 6.7605 -2.9359 0.0043 36.9346 4.1833 -2.6896 6.0040 7.3804 -1.9696 -11.4362 -1.9492 -3.5183 -13.9449 3.1914 -2.6950 -11.6765 1.2307 -0.5616 -1.3033 0.0000 -0.0000 0.0000 -36.3699 -29.4962 16.2644 159.7013 -31.0006 -114.3156 -0.0000 0.0000 -30.0979 3.6510 11.0448 0.7004 -7.1250 0.0000 -0.0000 -20.4235 40.1700 2.5550 0.0000 -0.0000 0.0000 39.0999 21.3131 16.1305 -153.6034 37.5977 -110.8714 0.0000 -0.0000 -23.6830 2.8282 39.4859 1.7993 7.1250 -0.0000 -0.0000 19.3529 7.6137 23.0146
